<?xml version="1.0" encoding="iso-8859-1"?>
<!-- Generator: Adobe Illustrator 25.2.3, SVG Export Plug-In . SVG Version: 6.00 Build 0)  -->
<svg version="1.1" baseProfile="basic" id="Layer_10"
	 xmlns="http://www.w3.org/2000/svg" xmlns:xlink="http://www.w3.org/1999/xlink" x="0px" y="0px" viewBox="0 0 64 64"
	 xml:space="preserve">
<path style="fill:#18AFFF;" d="M0.988,32C0.988,14.875,14.875,0.988,32,0.988S63.013,14.875,63.013,32S49.125,63.013,32,63.013
	S0.988,49.125,0.988,32z"/>
<path id="symbol_2_" style="fill:#FFFFFF;" d="M55.932,37.024l-4.629-20.22c-0.244-1.096-1.279-2.192-2.375-2.497L27.674,7.791
	c-0.305-0.061-0.609-0.122-0.914-0.122c-0.914,0-1.888,0.365-2.436,0.914L9.098,22.712c-0.792,0.731-1.279,2.192-1.035,3.289
	l4.933,21.62c0.244,1.096,1.279,2.192,2.375,2.497l19.854,6.09c0.305,0.061,0.609,0.122,0.914,0.122
	c0.914,0,1.888-0.365,2.436-0.914l16.261-15.104C55.75,39.582,56.176,38.121,55.932,37.024z M29.866,12.542l14.556,4.446
	c0.548,0.183,0.548,0.426,0,0.548l-7.674,1.766c-0.609,0.122-1.401-0.122-1.766-0.548l-5.359-5.786
	C29.196,12.603,29.318,12.42,29.866,12.542z M38.941,38.669c0.122,0.609-0.244,0.914-0.792,0.731l-15.713-4.811
	c-0.548-0.183-0.67-0.67-0.244-1.035l12.059-11.206c0.426-0.426,0.914-0.244,1.035,0.305L38.941,38.669z M13.057,24.418
	l12.79-11.876c0.426-0.426,1.096-0.365,1.523,0.061l6.395,6.882c0.426,0.426,0.365,1.096-0.061,1.523l-12.79,11.876
	c-0.426,0.426-1.096,0.365-1.523-0.061l-6.395-6.882C12.631,25.514,12.631,24.844,13.057,24.418z M16.163,43.297l-3.411-14.799
	c-0.122-0.609,0.061-0.67,0.487-0.244l5.359,5.786c0.426,0.426,0.609,1.279,0.426,1.827l-2.314,7.491
	C16.589,43.846,16.285,43.846,16.163,43.297z M34.86,51.885l-16.626-5.116c-0.548-0.183-0.914-0.792-0.731-1.34l2.741-9.014
	c0.183-0.548,0.792-0.914,1.34-0.731L38.21,40.8c0.548,0.183,0.914,0.792,0.731,1.34L36.2,51.154
	C36.017,51.763,35.408,52.067,34.86,51.885z M49.659,39.765L38.514,50.118c-0.426,0.426-0.67,0.244-0.487-0.305l2.314-7.491
	c0.183-0.548,0.792-1.157,1.401-1.279l7.674-1.766C49.964,39.156,50.086,39.4,49.659,39.765z M50.878,37.573l-9.196,2.071
	c-0.609,0.122-1.157-0.244-1.279-0.792L36.505,21.86c-0.122-0.609,0.244-1.157,0.792-1.279l9.196-2.071
	c0.609-0.122,1.157,0.244,1.279,0.792l3.898,16.992C51.791,36.842,51.426,37.451,50.878,37.573z"/>
</svg>